<svg id="visual" viewBox="0 0 900 600" width="900" height="600" xmlns="http://www.w3.org/2000/svg" xmlns:xlink="http://www.w3.org/1999/xlink" version="1.1"><g stroke-width="1" stroke-linejoin="bevel"><path d="M479 274L523 221L403 173Z" fill="#132e3b" stroke="#132e3b"></path><path d="M523 221L524 129L403 173Z" fill="#102734" stroke="#102734"></path><path d="M403 173L367 332L479 274Z" fill="#0e2430" stroke="#0e2430"></path><path d="M524 129L421 87L403 173Z" fill="#15313e" stroke="#15313e"></path><path d="M403 173L326 70L330 201Z" fill="#0e2430" stroke="#0e2430"></path><path d="M330 201L367 332L403 173Z" fill="#091b26" stroke="#091b26"></path><path d="M419 408L504 377L479 274Z" fill="#0e2430" stroke="#0e2430"></path><path d="M479 274L616 340L523 221Z" fill="#0e2430" stroke="#0e2430"></path><path d="M633 171L581 90L524 129Z" fill="#0a1e2a" stroke="#0a1e2a"></path><path d="M524 129L514 0L421 87Z" fill="#112a37" stroke="#112a37"></path><path d="M633 171L524 129L523 221Z" fill="#0e2430" stroke="#0e2430"></path><path d="M616 340L633 171L523 221Z" fill="#112a37" stroke="#112a37"></path><path d="M330 201L300 302L367 332Z" fill="#0a1e2a" stroke="#0a1e2a"></path><path d="M376 0L326 70L421 87Z" fill="#03141f" stroke="#03141f"></path><path d="M421 87L326 70L403 173Z" fill="#0c212d" stroke="#0c212d"></path><path d="M330 201L225 299L300 302Z" fill="#132e3b" stroke="#132e3b"></path><path d="M327 461L419 408L367 332Z" fill="#0a1e2a" stroke="#0a1e2a"></path><path d="M367 332L419 408L479 274Z" fill="#132e3b" stroke="#132e3b"></path><path d="M695 324L616 340L671 371Z" fill="#061723" stroke="#061723"></path><path d="M504 377L616 340L479 274Z" fill="#0a1e2a" stroke="#0a1e2a"></path><path d="M581 90L514 0L524 129Z" fill="#0e2430" stroke="#0e2430"></path><path d="M300 302L293 363L367 332Z" fill="#132e3b" stroke="#132e3b"></path><path d="M225 299L293 363L300 302Z" fill="#132e3b" stroke="#132e3b"></path><path d="M514 0L376 0L421 87Z" fill="#0a1e2a" stroke="#0a1e2a"></path><path d="M616 340L688 186L633 171Z" fill="#0e2430" stroke="#0e2430"></path><path d="M633 171L737 90L581 90Z" fill="#0c212d" stroke="#0c212d"></path><path d="M581 90L601 0L514 0Z" fill="#102734" stroke="#102734"></path><path d="M376 0L338 0L326 70Z" fill="#0c212d" stroke="#0c212d"></path><path d="M187 160L330 201L326 70Z" fill="#0a1e2a" stroke="#0a1e2a"></path><path d="M187 160L225 299L330 201Z" fill="#0c212d" stroke="#0c212d"></path><path d="M737 90L601 0L581 90Z" fill="#061723" stroke="#061723"></path><path d="M671 371L616 340L637 419Z" fill="#132e3b" stroke="#132e3b"></path><path d="M616 340L695 324L688 186Z" fill="#0a1e2a" stroke="#0a1e2a"></path><path d="M637 419L616 340L504 377Z" fill="#091b26" stroke="#091b26"></path><path d="M366 524L520 475L419 408Z" fill="#091b26" stroke="#091b26"></path><path d="M419 408L520 475L504 377Z" fill="#061723" stroke="#061723"></path><path d="M520 475L637 419L504 377Z" fill="#061723" stroke="#061723"></path><path d="M202 75L187 160L326 70Z" fill="#0a1e2a" stroke="#0a1e2a"></path><path d="M230 422L327 461L293 363Z" fill="#112a37" stroke="#112a37"></path><path d="M293 363L327 461L367 332Z" fill="#0e2430" stroke="#0e2430"></path><path d="M229 0L202 75L326 70Z" fill="#0c212d" stroke="#0c212d"></path><path d="M688 186L737 90L633 171Z" fill="#00101c" stroke="#00101c"></path><path d="M802 185L737 90L688 186Z" fill="#15313e" stroke="#15313e"></path><path d="M225 299L230 422L293 363Z" fill="#0a1e2a" stroke="#0a1e2a"></path><path d="M137 373L230 422L225 299Z" fill="#00101c" stroke="#00101c"></path><path d="M338 0L229 0L326 70Z" fill="#061723" stroke="#061723"></path><path d="M292 600L366 524L327 461Z" fill="#112a37" stroke="#112a37"></path><path d="M327 461L366 524L419 408Z" fill="#061723" stroke="#061723"></path><path d="M102 228L134 260L187 160Z" fill="#061723" stroke="#061723"></path><path d="M187 160L134 260L225 299Z" fill="#00101c" stroke="#00101c"></path><path d="M128 126L187 160L202 75Z" fill="#03141f" stroke="#03141f"></path><path d="M821 297L688 186L695 324Z" fill="#132e3b" stroke="#132e3b"></path><path d="M782 524L827 382L671 371Z" fill="#03141f" stroke="#03141f"></path><path d="M520 475L611 509L637 419Z" fill="#061723" stroke="#061723"></path><path d="M575 600L611 509L520 475Z" fill="#0c212d" stroke="#0c212d"></path><path d="M70 0L128 126L202 75Z" fill="#0a1e2a" stroke="#0a1e2a"></path><path d="M821 297L695 324L827 382Z" fill="#061723" stroke="#061723"></path><path d="M821 297L802 185L688 186Z" fill="#0a1e2a" stroke="#0a1e2a"></path><path d="M797 0L736 0L737 90Z" fill="#0e2430" stroke="#0e2430"></path><path d="M737 90L736 0L601 0Z" fill="#091b26" stroke="#091b26"></path><path d="M128 126L102 228L187 160Z" fill="#061723" stroke="#061723"></path><path d="M134 260L137 373L225 299Z" fill="#061723" stroke="#061723"></path><path d="M0 322L137 373L134 260Z" fill="#00101c" stroke="#00101c"></path><path d="M207 600L292 600L327 461Z" fill="#00101c" stroke="#00101c"></path><path d="M827 382L695 324L671 371Z" fill="#15313e" stroke="#15313e"></path><path d="M137 373L163 461L230 422Z" fill="#132e3b" stroke="#132e3b"></path><path d="M377 600L488 600L366 524Z" fill="#0e2430" stroke="#0e2430"></path><path d="M366 524L488 600L520 475Z" fill="#0c212d" stroke="#0c212d"></path><path d="M292 600L377 600L366 524Z" fill="#03141f" stroke="#03141f"></path><path d="M802 185L827 66L737 90Z" fill="#112a37" stroke="#112a37"></path><path d="M900 194L827 66L802 185Z" fill="#132e3b" stroke="#132e3b"></path><path d="M827 66L797 0L737 90Z" fill="#0a1e2a" stroke="#0a1e2a"></path><path d="M488 600L575 600L520 475Z" fill="#061723" stroke="#061723"></path><path d="M727 537L671 371L637 419Z" fill="#0e2430" stroke="#0e2430"></path><path d="M727 537L637 419L611 509Z" fill="#0a1e2a" stroke="#0a1e2a"></path><path d="M821 297L900 194L802 185Z" fill="#061723" stroke="#061723"></path><path d="M207 600L327 461L230 422Z" fill="#091b26" stroke="#091b26"></path><path d="M685 600L727 537L611 509Z" fill="#061723" stroke="#061723"></path><path d="M137 373L124 497L163 461Z" fill="#00101c" stroke="#00101c"></path><path d="M163 461L207 600L230 422Z" fill="#00101c" stroke="#00101c"></path><path d="M0 386L124 497L137 373Z" fill="#0a1e2a" stroke="#0a1e2a"></path><path d="M229 0L70 0L202 75Z" fill="#061723" stroke="#061723"></path><path d="M0 97L0 234L102 228Z" fill="#061723" stroke="#061723"></path><path d="M102 228L0 322L134 260Z" fill="#061723" stroke="#061723"></path><path d="M900 315L900 194L821 297Z" fill="#00101c" stroke="#00101c"></path><path d="M827 66L900 0L797 0Z" fill="#112a37" stroke="#112a37"></path><path d="M575 600L685 600L611 509Z" fill="#0e2430" stroke="#0e2430"></path><path d="M778 600L782 524L727 537Z" fill="#061723" stroke="#061723"></path><path d="M727 537L782 524L671 371Z" fill="#132e3b" stroke="#132e3b"></path><path d="M827 382L900 315L821 297Z" fill="#03141f" stroke="#03141f"></path><path d="M900 419L900 315L827 382Z" fill="#0c212d" stroke="#0c212d"></path><path d="M0 97L102 228L128 126Z" fill="#102734" stroke="#102734"></path><path d="M124 497L207 600L163 461Z" fill="#0a1e2a" stroke="#0a1e2a"></path><path d="M900 194L900 62L827 66Z" fill="#0e2430" stroke="#0e2430"></path><path d="M0 234L0 322L102 228Z" fill="#061723" stroke="#061723"></path><path d="M70 0L0 97L128 126Z" fill="#112a37" stroke="#112a37"></path><path d="M900 474L900 419L827 382Z" fill="#0c212d" stroke="#0c212d"></path><path d="M0 322L0 386L137 373Z" fill="#061723" stroke="#061723"></path><path d="M124 497L73 600L207 600Z" fill="#091b26" stroke="#091b26"></path><path d="M900 62L900 0L827 66Z" fill="#0c212d" stroke="#0c212d"></path><path d="M70 0L0 0L0 97Z" fill="#0e2430" stroke="#0e2430"></path><path d="M685 600L778 600L727 537Z" fill="#15313e" stroke="#15313e"></path><path d="M782 524L900 474L827 382Z" fill="#061723" stroke="#061723"></path><path d="M900 600L900 474L782 524Z" fill="#132e3b" stroke="#132e3b"></path><path d="M0 535L73 600L124 497Z" fill="#112a37" stroke="#112a37"></path><path d="M0 386L0 535L124 497Z" fill="#00101c" stroke="#00101c"></path><path d="M778 600L900 600L782 524Z" fill="#03141f" stroke="#03141f"></path><path d="M0 535L0 600L73 600Z" fill="#15313e" stroke="#15313e"></path></g></svg>